<svg xmlns="http://www.w3.org/2000/svg" version="1.1" xmlns:xlink="http://www.w3.org/1999/xlink" xmlns:svgjs="http://svgjs.dev/svgjs" width="1000" height="270" viewBox="0 0 1000 270"><g transform="matrix(1,0,0,1,-0.6060606060606233,0.3057865846055847)"><svg viewBox="0 0 396 107" data-background-color="#000000" preserveAspectRatio="xMidYMid meet" height="270" width="1000" xmlns="http://www.w3.org/2000/svg" xmlns:xlink="http://www.w3.org/1999/xlink"><g id="tight-bounds" transform="matrix(1,0,0,1,0.2400000000000091,-0.12118209093628707)"><svg viewBox="0 0 395.52 107.24236418187256" height="107.24236418187256" width="395.52"><g><svg viewBox="0 0 395.52 107.24236418187256" height="107.24236418187256" width="395.52"><g><svg viewBox="0 0 395.52 107.24236418187256" height="107.24236418187256" width="395.52"><g><svg viewBox="0 0 395.52 107.24236418187256" height="107.24236418187256" width="395.52"><g><rect width="395.52" height="84.31480703453187" fill="none" stroke-width="9.018103199999999" stroke="#ffffff" data-fill-palette-color="none" data-stroke-palette-color="tertiary"></rect><rect width="395.52" height="22.927557147340693" y="84.31480703453187" fill="#ffffff" data-fill-palette-color="tertiary"></rect></g><g><svg viewBox="0 0 395.52 84.31480703453187" height="84.31480703453187" width="395.52"><g transform="matrix(1,0,0,1,23.607599999999998,23.6076)"><svg width="348.3048" viewBox="1.0700000524520874 -35.790000915527344 342.8699951171875 36.52000045776367" height="37.099607034531864" data-palette-color="#ffffff"><path d="M1.86-35.21L24.37-35.21Q24.22-32.91 24.1-30.66 23.97-28.42 23.78-26.12L23.78-26.12 13.43-25.59 13.18-22.51 20.46-22.51 19.92-14.94 12.6-14.7 12.35-11.13 18.41-11.13 22.71-11.13Q22.56-8.45 22.4-5.8 22.24-3.15 22.12-0.49L22.12-0.49 1.07 0 1.86-35.21ZM46.87-34.62L58.4-35.01 56.64-1.9 43.85-0.73 37.01-18.46 35.94-0.39 24.95-0.39 25.83-35.01 38.03-35.6 46.48-18.02 46.87-34.62ZM88.81-23.49L88.81-23.49Q88.81-21.12 88.11-19.29 87.4-17.46 86.16-16.09 84.93-14.72 83.27-13.77 81.61-12.82 79.72-12.22 77.83-11.62 75.8-11.34 73.77-11.06 71.82-11.04L71.82-11.04 71.82 0.34 60.44 0.34Q60.44-5.25 60.47-10.79 60.49-16.33 60.54-21.97L60.54-21.97Q60.59-24.95 60.57-27.93 60.54-30.91 60.69-33.94L60.69-33.94Q63.81-34.86 66.94-35.33 70.06-35.79 73.38-35.79L73.38-35.79Q75.26-35.79 77.14-35.49 79.02-35.18 80.74-34.52 82.47-33.86 83.94-32.87 85.42-31.88 86.49-30.52 87.57-29.15 88.19-27.4 88.81-25.66 88.81-23.49ZM77.97-22.66L77.97-22.66Q77.97-24.24 77.01-25.13 76.04-26.03 74.51-26.03L74.51-26.03Q73.99-26.03 73.44-25.94 72.9-25.85 72.41-25.73L72.41-25.73 72.11-18.6Q72.46-18.55 72.77-18.55 73.09-18.55 73.43-18.55L73.43-18.55Q74.31-18.55 75.13-18.85 75.95-19.14 76.58-19.69 77.22-20.24 77.6-20.98 77.97-21.73 77.97-22.66ZM118.77-23.54L118.77-23.54Q118.77-21.63 118.44-20.08 118.11-18.53 117.4-17.24 116.69-15.94 115.57-14.84 114.45-13.75 112.86-12.74L112.86-12.74 118.67-2.39 107.68-0.24 103.92-10.64 100.9-10.55 100.46-0.39 89.96-0.39Q90.08-5.96 90.19-11.47 90.3-16.99 90.45-22.56L90.45-22.56Q90.5-25.37 90.54-28.13 90.59-30.88 90.74-33.69L90.74-33.69Q92.45-34.33 94.11-34.74 95.77-35.16 97.44-35.39 99.11-35.62 100.83-35.71 102.56-35.79 104.36-35.79L104.36-35.79Q107.15-35.79 109.75-35.02 112.35-34.25 114.35-32.71 116.35-31.18 117.56-28.88 118.77-26.59 118.77-23.54ZM107.83-22.75L107.83-22.75Q107.83-23.78 107.55-24.63 107.27-25.49 106.72-26.11 106.17-26.73 105.35-27.09 104.53-27.44 103.43-27.44L103.43-27.44Q102.95-27.44 102.48-27.38 102.02-27.32 101.58-27.2L101.58-27.2 101.19-18.12 101.77-18.12Q102.82-18.12 103.91-18.38 105-18.65 105.86-19.21 106.73-19.78 107.28-20.65 107.83-21.53 107.83-22.75ZM150.31-17.24L150.31-17.24Q150.31-15.01 149.79-12.95 149.28-10.89 148.32-9.08 147.35-7.28 145.97-5.77 144.59-4.27 142.87-3.2 141.15-2.12 139.13-1.53 137.1-0.93 134.83-0.93L134.83-0.93Q132.63-0.93 130.64-1.49 128.65-2.05 126.92-3.06 125.19-4.08 123.78-5.51 122.38-6.93 121.39-8.68 120.4-10.42 119.85-12.43 119.3-14.43 119.3-16.6L119.3-16.6Q119.3-18.73 119.81-20.76 120.33-22.8 121.29-24.61 122.26-26.42 123.62-27.93 124.99-29.44 126.69-30.54 128.38-31.64 130.36-32.25 132.34-32.86 134.54-32.86L134.54-32.86Q138.08-32.86 140.99-31.76 143.91-30.66 145.97-28.63 148.04-26.59 149.17-23.69 150.31-20.8 150.31-17.24ZM139.47-16.6L139.47-16.6Q139.47-17.65 139.16-18.64 138.86-19.63 138.27-20.4 137.69-21.17 136.82-21.64 135.95-22.12 134.83-22.12L134.83-22.12Q133.68-22.12 132.78-21.7 131.87-21.29 131.23-20.57 130.58-19.85 130.24-18.88 129.9-17.92 129.9-16.85L129.9-16.85Q129.9-15.82 130.19-14.79 130.48-13.77 131.07-12.94 131.66-12.11 132.52-11.6 133.39-11.08 134.54-11.08L134.54-11.08Q135.68-11.08 136.6-11.54 137.51-11.99 138.15-12.76 138.78-13.53 139.13-14.53 139.47-15.53 139.47-16.6ZM152.62-35.21L175.13-35.21Q174.99-32.91 174.87-30.66 174.74-28.42 174.55-26.12L174.55-26.12 164.2-25.59 164.2-22.51 173.18-22.51 172.69-14.94 164.15-14.7 164.2-0.24 151.84 0 152.62-35.21ZM176.57-33.69L189.56-34.38 186.87-1.12 176.57-0.59 176.57-33.69ZM212.7-13.92L212.7-13.92 211.68-3.08 191.12-1.46Q191.27-9.99 191.45-18.41 191.63-26.83 191.9-35.35L191.9-35.35 204.6-35.35Q204.04-30 203.52-24.67 203.01-19.34 202.79-13.92L202.79-13.92Q203.94-13.87 205.06-13.87 206.18-13.87 207.33-13.87L207.33-13.87Q208.7-13.87 210.02-13.89 211.34-13.92 212.7-13.92ZM214.46-35.21L236.97-35.21Q236.82-32.91 236.7-30.66 236.58-28.42 236.38-26.12L236.38-26.12 226.03-25.59 225.79-22.51 233.06-22.51 232.52-14.94 225.2-14.7 224.96-11.13 231.01-11.13 235.31-11.13Q235.16-8.45 235-5.8 234.84-3.15 234.72-0.49L234.72-0.49 213.68 0 214.46-35.21ZM247.24-5.03L247.24-5.03Q247.24-3.96 246.83-3.03 246.41-2.1 245.72-1.4 245.02-0.71 244.09-0.31 243.17 0.1 242.12 0.1L242.12 0.1Q241.04 0.1 240.11-0.31 239.19-0.71 238.49-1.4 237.79-2.1 237.39-3.03 236.99-3.96 236.99-5.03L236.99-5.03Q236.99-6.08 237.39-7.03 237.79-7.98 238.49-8.68 239.19-9.38 240.11-9.79 241.04-10.21 242.12-10.21L242.12-10.21Q243.17-10.21 244.09-9.79 245.02-9.38 245.72-8.68 246.41-7.98 246.83-7.03 247.24-6.08 247.24-5.03ZM273.07-34.33L273.07-34.33 271.7-24.02Q271-24.22 270.29-24.29 269.58-24.37 268.87-24.37L268.87-24.37Q267.06-24.37 265.43-23.89 263.79-23.41 262.54-22.44 261.28-21.46 260.53-20 259.79-18.53 259.79-16.55L259.79-16.55Q259.79-15.28 260.19-14.36 260.6-13.43 261.33-12.82 262.06-12.21 263.06-11.91 264.06-11.62 265.26-11.62L265.26-11.62Q266.16-11.62 267.14-11.82 268.11-12.01 269.07-12.33 270.02-12.65 270.92-13.06 271.83-13.48 272.58-13.92L272.58-13.92 271.61-2.44Q270.65-1.95 269.54-1.57 268.43-1.2 267.26-0.92 266.09-0.63 264.92-0.49 263.74-0.34 262.67-0.34L262.67-0.34Q259.57-0.34 256.88-1.49 254.2-2.64 252.22-4.64 250.24-6.64 249.11-9.36 247.97-12.08 247.97-15.23L247.97-15.23Q247.97-19.41 249.17-23.11 250.37-26.81 252.68-29.59 255-32.37 258.43-33.98 261.86-35.6 266.33-35.6L266.33-35.6Q268.02-35.6 269.79-35.33 271.56-35.06 273.07-34.33ZM304.49-17.24L304.49-17.24Q304.49-15.01 303.98-12.95 303.46-10.89 302.5-9.08 301.54-7.28 300.16-5.77 298.78-4.27 297.06-3.2 295.33-2.12 293.31-1.53 291.28-0.93 289.01-0.93L289.01-0.93Q286.81-0.93 284.82-1.49 282.83-2.05 281.1-3.06 279.37-4.08 277.96-5.51 276.56-6.93 275.57-8.68 274.58-10.42 274.03-12.43 273.48-14.43 273.48-16.6L273.48-16.6Q273.48-18.73 274-20.76 274.51-22.8 275.47-24.61 276.44-26.42 277.8-27.93 279.17-29.44 280.87-30.54 282.57-31.64 284.54-32.25 286.52-32.86 288.72-32.86L288.72-32.86Q292.26-32.86 295.18-31.76 298.09-30.66 300.16-28.63 302.22-26.59 303.35-23.69 304.49-20.8 304.49-17.24ZM293.65-16.6L293.65-16.6Q293.65-17.65 293.34-18.64 293.04-19.63 292.45-20.4 291.87-21.17 291-21.64 290.13-22.12 289.01-22.12L289.01-22.12Q287.86-22.12 286.96-21.7 286.06-21.29 285.41-20.57 284.76-19.85 284.42-18.88 284.08-17.92 284.08-16.85L284.08-16.85Q284.08-15.82 284.37-14.79 284.66-13.77 285.25-12.94 285.84-12.11 286.7-11.6 287.57-11.08 288.72-11.08L288.72-11.08Q289.87-11.08 290.78-11.54 291.7-11.99 292.33-12.76 292.97-13.53 293.31-14.53 293.65-15.53 293.65-16.6ZM330.8-35.6L343.94-35.6 341.69 0.24 330.56 0.73 330.66-18.16 325.63-2.93 321.33-2.93 317.47-16.55 317.43-0.73 306.15-0.39 306.64-34.13 319.18-34.62 324.16-18.46 330.8-35.6Z" opacity="1" transform="matrix(1,0,0,1,0,0)" fill="#ffffff" class="undefined-text-0" data-fill-palette-color="primary" id="text-0"></path></svg></g></svg></g></svg></g></svg></g></svg></g><defs></defs></svg><rect width="395.52" height="107.24236418187256" fill="none" stroke="none" visibility="hidden"></rect></g></svg></g></svg>